<svg xmlns="http://www.w3.org/2000/svg" width="108.392" height="26.231" viewBox="0 0 108.392 26.231">
  <g id="Group_11" data-name="Group 11" transform="translate(-2475.747 -147.929)">
    <path id="Path_13" data-name="Path 13" d="M2584.027,149.943a.468.468,0,0,1-.157.291l-.4.492c-.112.156-.2.223-.291.223a.469.469,0,0,1-.335-.156,6.723,6.723,0,0,0-3.979-1.431c-1.967,0-3.353,1.051-3.353,2.817s1.14,2.369,3.823,3.062c3.375.872,4.806,1.967,4.806,4.336,0,2.638-2.347,4.449-5.522,4.449a7.929,7.929,0,0,1-5.1-1.945c-.157-.112-.224-.2-.224-.313a.46.46,0,0,1,.157-.313l.424-.514c.112-.134.2-.2.291-.2a.521.521,0,0,1,.291.156,6.7,6.7,0,0,0,4.225,1.7c2.369,0,3.911-1.14,3.911-2.928,0-1.632-.939-2.3-3.845-3.04-3.2-.85-4.716-1.7-4.783-4.359,0-2.66,2.19-4.337,4.94-4.337a7.807,7.807,0,0,1,4.9,1.7C2583.96,149.742,2584.027,149.832,2584.027,149.943Z" fill="#fff"/>
    <g id="Group_8" data-name="Group 8">
      <g id="Group_7" data-name="Group 7">
        <path id="Path_14" data-name="Path 14" d="M2531.828,170.73c1.177,0,1.85.643,1.85,1.643a1.7,1.7,0,0,1-1.936,1.719H2530.6c-.092,0-.13-.038-.13-.129v-3.1c0-.091.038-.129.13-.129Zm-.067.821h-.3c-.063,0-.077.019-.077.077v1.566c0,.058.014.077.077.077h.283c.653,0,.994-.322.994-.875C2532.736,171.878,2532.4,171.551,2531.761,171.551Z" fill="#fff"/>
        <path id="Path_15" data-name="Path 15" d="M2536.259,170.73c.1,0,.135.038.135.129v3.1c0,.091-.039.129-.135.129h-.648c-.092,0-.13-.038-.13-.129v-3.1c0-.091.038-.129.13-.129Z" fill="#fff"/>
        <path id="Path_16" data-name="Path 16" d="M2541.324,172.377c.091,0,.129.044.129.135v1.119a.2.2,0,0,1-.12.2,2.923,2.923,0,0,1-1.335.327,1.687,1.687,0,0,1-1.8-1.715,1.736,1.736,0,0,1,1.845-1.783,2.245,2.245,0,0,1,1.263.38c.058.038.087.077.087.12a.179.179,0,0,1-.039.1l-.269.423a.144.144,0,0,1-.11.081.164.164,0,0,1-.1-.033,1.582,1.582,0,0,0-.826-.226.915.915,0,0,0-.039,1.83,1.22,1.22,0,0,0,.452-.072.093.093,0,0,0,.077-.1v-.644c0-.091.038-.135.129-.135Z" fill="#fff"/>
        <path id="Path_17" data-name="Path 17" d="M2544.111,170.73c.1,0,.135.038.135.129v3.1c0,.091-.038.129-.135.129h-.648c-.091,0-.13-.038-.13-.129v-3.1c0-.091.039-.129.13-.129Z" fill="#fff"/>
        <path id="Path_18" data-name="Path 18" d="M2546.082,171.561a.115.115,0,0,1-.13-.13v-.572a.114.114,0,0,1,.13-.129h2.517c.091,0,.13.038.13.129v.572c0,.091-.039.13-.13.13h-.725c-.058,0-.077.019-.077.077v2.325c0,.091-.038.129-.13.129h-.653c-.091,0-.13-.038-.13-.129v-2.325c0-.058-.019-.077-.077-.077Z" fill="#fff"/>
        <path id="Path_19" data-name="Path 19" d="M2553.27,172.214v1.749c0,.091-.038.129-.134.129h-.649c-.091,0-.13-.038-.13-.129v-.687c0-.063-.019-.077-.077-.077h-1.119c-.062,0-.077.014-.077.077v.687c0,.091-.038.129-.134.129h-.649c-.091,0-.13-.038-.13-.129v-1.749a1.432,1.432,0,0,1,1.567-1.552A1.408,1.408,0,0,1,2553.27,172.214Zm-.913.038c0-.48-.221-.749-.639-.749s-.634.269-.634.749v.068c0,.053.019.072.077.072h1.119c.058,0,.077-.019.077-.072Z" fill="#fff"/>
        <path id="Path_20" data-name="Path 20" d="M2556,170.73c.1,0,.135.038.135.129v2.325c0,.058.014.077.077.077h1.191c.092,0,.13.039.13.13v.572c0,.091-.038.129-.13.129h-2.051c-.091,0-.13-.038-.13-.129v-3.1c0-.091.039-.129.13-.129Z" fill="#fff"/>
        <path id="Path_21" data-name="Path 21" d="M2562.67,170.73c.1,0,.135.038.135.129v2.325c0,.058.014.077.077.077h1.191c.091,0,.13.039.13.13v.572c0,.091-.039.129-.13.129h-2.051c-.091,0-.13-.038-.13-.129v-3.1c0-.091.039-.129.13-.129Z" fill="#fff"/>
        <path id="Path_22" data-name="Path 22" d="M2569.407,172.411a1.814,1.814,0,1,1-1.816-1.749A1.72,1.72,0,0,1,2569.407,172.411Zm-1.816-.908a.912.912,0,0,0-.005,1.821.911.911,0,0,0,.005-1.821Z" fill="#fff"/>
        <path id="Path_23" data-name="Path 23" d="M2574.212,172.214v1.749c0,.091-.038.129-.134.129h-.649c-.091,0-.13-.038-.13-.129v-.687c0-.063-.019-.077-.076-.077h-1.12c-.062,0-.077.014-.077.077v.687c0,.091-.038.129-.134.129h-.649c-.091,0-.129-.038-.129-.129v-1.749a1.431,1.431,0,0,1,1.566-1.552A1.407,1.407,0,0,1,2574.212,172.214Zm-.913.038c0-.48-.22-.749-.638-.749s-.635.269-.635.749v.068c0,.053.02.072.077.072h1.12c.057,0,.076-.019.076-.072Z" fill="#fff"/>
        <path id="Path_24" data-name="Path 24" d="M2576.544,170.825l1.71,1.533v-1.5c0-.091.038-.129.13-.129h.653a.114.114,0,0,1,.13.129v3.1c0,.129-.039.2-.12.2s-.135-.044-.265-.164l-1.71-1.532v1.5c0,.091-.038.129-.134.129h-.649c-.091,0-.13-.038-.13-.129v-3.1c0-.129.039-.2.121-.2C2576.342,170.662,2576.414,170.71,2576.544,170.825Z" fill="#fff"/>
        <path id="Path_25" data-name="Path 25" d="M2581.378,173.064a1.419,1.419,0,0,0,.812.289c.284,0,.428-.092.428-.241s-.125-.211-.572-.321c-.7-.169-1.062-.447-1.062-1.038,0-.692.538-1.091,1.3-1.091a1.87,1.87,0,0,1,1.21.428.126.126,0,0,1,.058.1.159.159,0,0,1-.034.1l-.288.442a.112.112,0,0,1-.091.062.142.142,0,0,1-.092-.038,1.291,1.291,0,0,0-.754-.284c-.231,0-.365.1-.365.236.019.173.115.206.528.312.75.178,1.1.466,1.1,1.038,0,.687-.538,1.105-1.359,1.105a1.983,1.983,0,0,1-1.254-.423c-.053-.038-.077-.072-.077-.115a.208.208,0,0,1,.043-.111l.274-.418a.123.123,0,0,1,.1-.072A.184.184,0,0,1,2581.378,173.064Z" fill="#fff"/>
      </g>
    </g>
    <g id="Group_9" data-name="Group 9">
      <path id="Path_26" data-name="Path 26" d="M2529.182,159.7a13.2,13.2,0,0,1-7.9-2.6l.817-1.1a11.933,11.933,0,0,0,13.972.143l.794,1.121A13.213,13.213,0,0,1,2529.182,159.7Z" fill="#fff"/>
    </g>
    <path id="Path_27" data-name="Path 27" d="M2511.6,148.585v8.668c0,3.308-1.743,5.342-4.716,5.342s-4.649-2.034-4.649-5.387v-8.623h-1.452v8.69c0,4.538,2.525,6.751,6.035,6.751,3.621,0,6.236-2.325,6.236-6.84v-8.6Z" fill="#fff"/>
    <path id="Path_28" data-name="Path 28" d="M2553.673,162.371h-6.909c-.156,0-.223-.067-.223-.223V148.585h-1.451v14.77c0,.358.112.447.447.447h8.138Z" fill="#fff"/>
    <path id="Path_29" data-name="Path 29" d="M2564.714,163.341V148.585h-1.451v14.756Z" fill="#fff"/>
    <path id="Path_30" data-name="Path 30" d="M2483.683,147.931a7.94,7.94,0,0,0-7.935,8.07,7.794,7.794,0,0,0,7.689,8.025l1.833,2.838c.047.071.089.131.13.185h1.8a2.545,2.545,0,0,0-.122-.229l-1.923-2.951a7.906,7.906,0,0,0,6.46-7.891A7.824,7.824,0,0,0,2483.683,147.931Zm-.022,14.664A6.619,6.619,0,1,1,2490.1,156,6.5,6.5,0,0,1,2483.661,162.6Z" fill="#fff"/>
    <g id="Group_10" data-name="Group 10">
      <path id="Path_31" data-name="Path 31" d="M2524.389,156.669v-1.741c0-3.308,1.743-5.342,4.716-5.342s4.649,2.034,4.649,5.387v3.08l1.453-.4v-2.75c0-4.538-2.525-6.751-6.035-6.751-3.621,0-6.236,2.325-6.236,6.84v.941A3.144,3.144,0,0,0,2524.389,156.669Z" fill="#fff"/>
      <path id="Path_32" data-name="Path 32" d="M2533.754,159.7v3.879c0,.018,0,.032,0,.049h1.448c0-.017,0-.031,0-.049V158.92A6.547,6.547,0,0,1,2533.754,159.7Z" fill="#fff"/>
      <path id="Path_33" data-name="Path 33" d="M2522.936,156.862v6.717c0,.018,0,.032,0,.049h1.448c0-.017,0-.031,0-.049v-5.957Z" fill="#fff"/>
    </g>
  </g>
</svg>
